<?xml version="1.0" encoding="UTF-8" standalone="no"?>
<svg
   id="svg2"
   viewBox="0 0 377.85196 305.02954"
   version="1.1"
   width="377.85196"
   height="305.02954"
   sodipodi:docname="favicon.svg"
   xmlns:inkscape="http://www.inkscape.org/namespaces/inkscape"
   xmlns:sodipodi="http://sodipodi.sourceforge.net/DTD/sodipodi-0.dtd"
   xmlns="http://www.w3.org/2000/svg"
   xmlns:svg="http://www.w3.org/2000/svg">
  <sodipodi:namedview
     id="namedview1"
     pagecolor="#ffffff"
     bordercolor="#000000"
     borderopacity="0.25"
     inkscape:showpageshadow="2"
     inkscape:pageopacity="0.0"
     inkscape:pagecheckerboard="0"
     inkscape:deskcolor="#d1d1d1" />
  <defs
     id="defs1" />
  <g
     id="layer1"
     transform="translate(12.796747,-579.42796)"
     style="stroke-width:0;stroke-dasharray:none">
    <path
       id="path3964-7"
       style="fill:#000000;fill-opacity:1;stroke:#ffffff;stroke-width:0;stroke-dasharray:none;stroke-opacity:1"
       d="M 87.897199,647.94202 C -110.42098,763.69821 20.245787,901.49523 170.99665,882.40878 356.41687,904.39388 434.9731,744.07663 289.79752,658.2322 235.67202,632.34509 196.3666,635.5113 87.897199,647.94202 Z" />
    <path
       id="path3966-6"
       style="fill:#000000;fill-opacity:1;stroke:#ffffff;stroke-width:0;stroke-dasharray:none;stroke-opacity:1"
       d="M 46.707473,679.886 70.710101,579.42796 116.31378,659.05925 Z" />
    <path
       id="path3968-8"
       style="fill:#000000;fill-opacity:1;stroke:#ffffff;stroke-width:0;stroke-dasharray:none;stroke-opacity:1"
       d="m 248.17504,669.96486 46.80391,-86.98158 27.60226,144.56424 z" />
    <path
       id="path3964"
       style="fill:#3e3f5a;fill-opacity:1;stroke:#000000;stroke-width:0;stroke-dasharray:none"
       d="m 94.993787,660.8 c -181.59,103.83 -61.945,227.43 76.090003,210.31 169.78,19.72 241.71,-124.08 108.78,-201.08 -49.56,-23.22 -85.55,-20.38 -184.870003,-9.23 z" />
    <path
       id="path3966"
       style="fill:#3e3f5a;fill-opacity:1;stroke:#000000;stroke-width:0;stroke-dasharray:none"
       d="m 53.231787,696.39 21.978,-90.108 41.757003,71.427 z" />
    <path
       id="path3968"
       style="fill:#3e3f5a;fill-opacity:1;stroke:#000000;stroke-width:0;stroke-dasharray:none"
       d="m 248.83379,686.5 42.856,-78.02 25.274,129.67 z" />
    <g
       id="g3043"
       transform="matrix(1.8132,0,0,1.8809,-768.37621,-1408.3999)"
       style="stroke-width:0;stroke-dasharray:none">
      <g
         id="g3045"
         transform="translate(149.76,-8.8676)"
         style="stroke-width:0;stroke-dasharray:none">
        <path
           id="path3047"
           d="m 384.5,1159.4 c 10.094,-12.278 32.088,-55.363 69.76,1.4819 -10.793,14.515 -19.918,22.12 -33.219,25.685 1.1119,-3.8722 -22.558,-0.2357 -36.541,-27.167 z"
           style="fill:#ffffff;stroke:#ffffff;stroke-width:0;stroke-dasharray:none" />
        <circle
           id="path3049"
           style="fill:#000000;stroke:#000000;stroke-width:0;stroke-dasharray:none"
           transform="matrix(0.56362,0,0,0.78396,293.01,136.07)"
           cx="222.94662"
           cy="1303.1771"
           r="32.745285" />
      </g>
    </g>
    <g
       id="g4053"
       transform="matrix(1.8132,0,0,1.8809,-940.73621,-1408.3999)"
       style="stroke-width:0;stroke-dasharray:none">
      <g
         id="g4055"
         transform="translate(149.76,-8.8676)"
         style="stroke-width:0;stroke-dasharray:none">
        <path
           id="path4057"
           style="fill:#ffffff;stroke:#ffffff;stroke-width:0;stroke-dasharray:none"
           d="m 384.5,1159.4 c 10.094,-12.278 32.088,-55.363 69.76,1.4819 -10.793,14.515 -19.918,22.12 -33.219,25.685 1.1119,-3.8722 -22.558,-0.2357 -36.541,-27.167 z" />
        <circle
           id="path4059"
           style="fill:#000000;stroke:#000000;stroke-width:0;stroke-dasharray:none"
           transform="matrix(0.56362,0,0,0.78396,293.01,136.07)"
           cx="222.94662"
           cy="1303.1771"
           r="32.745285" />
      </g>
    </g>
    <path
       id="path3055"
       style="fill:#3e3f5a;fill-opacity:1;stroke:#000000;stroke-width:0;stroke-dasharray:none"
       d="m 96.093787,805.04 c 2.0962,-0.0786 4.110003,-0.53944 6.150303,-0.96916 1.3099,-0.67404 2.7113,-0.96952 4.1627,-1.1164 1.2653,-0.14645 2.7388,0.15794 3.8215,-0.66024 0.64263,0.0375 1.4147,1.2457 0.76412,1.631 -6.153,3.644 -6.9577,5.3506 -11.521004,6.2211 -1.508699,0.24321 -3.039999,0.27119 -4.564599,0.29566 -1.5266,0.11291 -3.1068,-0.19932 -4.6008,0.16633 -1.3388,0.38423 -2.727,0.49264 -4.1109,0.56498 -1.0077,0.12952 -2.0508,-0.0646 -3.0561,0.0547 -0.43606,0.0518 -0.85136,0.21568 -1.2773,0.32234 -1.3341,0.40534 -2.7722,0.18527 -4.0896,0.59755 -1.2612,0.50625 -2.6684,0.32383 -3.9298,0.763 -1.3023,0.45064 -2.6811,0.54251 -4.046,0.61318 -0.96847,0.0315 -0.51053,-0.0447 -1.3777,0.20397 l 9.2533,-6.9736 c 0.94678,-0.0745 0.46747,-0.0393 1.438,-0.10542 1.3426,-0.13503 2.6534,-0.39491 3.9519,-0.76389 1.3318,-0.17319 2.6465,-0.40412 3.9497,-0.73253 1.3726,-0.13609 2.7448,-0.27141 4.0887,-0.599 1.4595,-0.226 2.9413,-0.10925 4.4101,-0.25278 1.3726,-0.12997 2.7178,-0.39106 4.074999,-0.62408 1.552604,-0.0526 3.106804,-0.004 4.659604,-0.0568 1.4843,-0.0545 2.9871,-0.11552 4.4212,-0.53914 3.6286,-1.3347 9.7221,-5.7262 -8.5296,5.1171 -0.0711,0.0422 0.19269,-0.0931 0.24627,-0.0301 0.88506,1.0406 0.95869,0.80412 0.69396,1.3342 -1.311404,0.1732 -2.628703,0.22845 -3.941003,0.39177 -1.4035,0.26308 -2.7086,0.80008 -4.0874,1.1524 -2.0633,0.42898 -4.1468,0.65054 -6.233,0.93823 l 9.2784,-6.9444 z" />
    <path
       id="path3059"
       style="fill:#3e3f5a;fill-opacity:1;stroke:#000000;stroke-width:0;stroke-dasharray:none"
       d="m 264.57379,804.56 c 1.1014,-0.003 2.188,-9.6e-4 3.2793,0.15142 0.85373,0.13742 1.7155,0.19915 2.5788,0.22906 0.78948,0.0971 1.5373,-0.0667 2.3082,-0.19883 0.75465,-0.17483 1.5537,-0.0479 2.2962,-0.25347 0.65957,-0.23281 1.3706,-0.18606 2.037,-0.36781 0.75677,-0.20515 1.538,-0.27223 2.3179,-0.31348 0.74458,0.0608 1.4322,-0.1082 2.1506,-0.25494 0.73022,-0.0456 1.4246,-0.23416 2.1393,-0.37228 0.77426,-0.0445 1.505,-0.25222 2.2628,-0.39036 0.39208,0.0177 1.2597,-0.39045 1.5656,0.0336 0.0835,0.11579 0.12655,0.256 0.18982,0.38399 -13.699,8.2038 -0.049,0.31445 -0.17066,0.3838 -2.9228,1.6666 -3.6495,2.819 -6.0814,3.1242 -0.83034,0.0789 -1.6662,0.0712 -2.4995,0.0764 -0.8365,0.003 -1.673,10e-4 -2.5095,6.8e-4 -0.64168,0.0535 -1.3844,0.13032 -1.9764,0.40504 -0.62242,0.26819 -1.3021,0.31379 -1.97,0.35246 -0.7685,0.032 -1.5379,0.028 -2.3069,0.0272 -0.78246,-0.002 -1.5649,-0.003 -2.3474,-0.004 -0.65646,0.19533 -1.3289,0.2921 -2.0098,0.34529 -0.76085,0.0463 -1.5235,0.0461 -2.2855,0.0478 -0.78171,2.2e-4 -1.5634,-10e-4 -2.3451,-0.002 -0.78159,-7.3e-4 -1.5632,-8.4e-4 -2.3448,-9.2e-4 -0.78127,-5e-5 -1.5625,-3e-5 -2.3438,-2e-5 -0.78124,10e-6 -1.5625,10e-6 -2.3437,10e-6 h -2.3438 c -0.94719,-0.006 -1.8375,-0.39249 -2.763,-0.5743 -1.0573,-0.1384 -2.1019,-0.34719 -3.1611,-0.47563 -1.1588,-0.2702 -2.3404,-0.42356 -3.5155,-0.60551 -1.2143,-0.14643 -2.4273,-0.20637 -3.601,-0.57009 -0.99645,-0.33145 -2.0473,-0.41807 -3.0887,-0.4809 -0.8755,-0.14219 -1.6988,-0.46664 -2.5671,-0.64348 -0.79142,-0.14201 -1.5968,-0.1581 -2.3985,-0.1692 -0.79551,-0.006 -1.591,0.001 -2.3865,-0.002 -0.16551,-9.9e-4 -0.33102,-0.002 -0.49653,-0.003 l 4.6603,-3.3871 c 0.16887,-0.002 0.33774,-0.003 0.50662,-0.005 0.80064,-0.006 1.6015,-0.008 2.402,0.009 0.82468,0.028 1.6519,0.0772 2.4581,0.26688 0.83286,0.20505 1.6469,0.50209 2.5058,0.5836 1.0674,0.097 2.1344,0.23502 3.1571,0.57139 1.1598,0.28645 2.3444,0.37848 3.5263,0.538 1.1815,0.17913 2.3671,0.33061 3.5375,0.57612 1.0654,0.1543 2.1292,0.32455 3.1896,0.50897 0.89766,0.20238 1.7788,0.52883 2.7131,0.46244 0.78125,0 1.5625,0 2.3438,-10e-6 0.78124,0 1.5625,0 2.3437,-1e-5 0.78128,0 1.5626,-2e-5 2.3438,1.1e-4 0.78168,1.7e-4 1.5634,4.6e-4 2.345,10e-4 0.78105,9e-4 1.5621,0.003 2.3432,-10e-4 0.75305,-0.007 1.5078,-0.0146 2.2572,-0.097 0.68213,-0.0888 1.3509,-0.27636 2.04,-0.29243 0.78222,0.001 1.5644,0.003 2.3467,0.003 0.76105,-0.003 1.5236,-0.002 2.2823,-0.0706 0.6537,-0.0769 1.2849,-0.22287 1.9001,-0.46087 0.68483,-0.13294 1.3662,-0.30277 2.0704,-0.25074 0.83257,0.002 1.6652,0.006 2.4977,-3.8e-4 0.82092,-0.0112 1.6493,-0.013 2.4578,-0.17323 0.2512,-0.0649 0.34704,-0.0785 0.58139,-0.18066 0.0791,-0.0345 0.3049,-0.16172 0.23026,-0.11839 -1.5941,0.92545 -6.4269,3.6105 -4.789,2.7649 3.5881,-1.8524 9.8964,-5.972 0.35641,0.10015 0.0685,0.0922 0.15238,0.17463 0.20537,0.27647 0.0365,0.0701 -0.1538,0.0381 -0.23224,0.0477 -0.36479,0.0446 -0.73014,0.0867 -1.0893,0.1678 -0.75075,0.16291 -1.5062,0.26188 -2.2626,0.39421 -0.71261,0.1549 -1.4314,0.24676 -2.1482,0.37802 -0.72365,0.14704 -1.4505,0.15406 -2.1866,0.18768 -0.76837,0.0686 -1.5262,0.19434 -2.2766,0.37518 -0.68859,0.0944 -1.3716,0.20569 -2.0502,0.35756 -0.76572,0.0604 -1.5346,0.0979 -2.2905,0.24603 -0.79106,0.13053 -1.5796,0.1674 -2.3806,0.0989 -0.86697,-0.051 -1.729,-0.14703 -2.5876,-0.27921 -1.085,-0.12365 -2.1758,-0.0905 -3.2661,-0.071 l 4.6885,-3.4064 z" />
  </g>
</svg>
