<?xml version="1.0" standalone="no"?>
<!DOCTYPE svg PUBLIC "-//W3C//DTD SVG 20010904//EN"
 "http://www.w3.org/TR/2001/REC-SVG-20010904/DTD/svg10.dtd">
<svg version="1.0" xmlns="http://www.w3.org/2000/svg"
 width="756.000000pt" height="756.000000pt" viewBox="0 0 756.000000 756.000000"
 preserveAspectRatio="xMidYMid meet">
<metadata>
Created by potrace 1.14, written by Peter Selinger 2001-2017
</metadata>
<g transform="translate(0.000000,756.000000) scale(0.100000,-0.100000)"
fill="#000000" stroke="none">
<path d="M1666 6809 c-3 -8 -14 -54 -26 -104 -11 -49 -22 -97 -25 -105 -8 -35
-57 -246 -60 -263 -2 -9 -6 -21 -10 -26 -3 -5 -7 -22 -9 -38 -3 -23 -15 -74
-62 -265 -2 -10 -6 -26 -8 -35 -2 -10 -23 -97 -46 -193 -23 -96 -44 -186 -46
-199 -3 -14 -7 -28 -9 -31 -2 -4 -7 -22 -10 -41 -3 -19 -12 -56 -20 -84 -7
-27 -16 -63 -19 -80 -3 -16 -9 -46 -15 -65 -6 -19 -12 -46 -15 -60 -2 -14 -14
-63 -26 -110 -24 -98 -28 -113 -36 -157 -4 -21 -19 -43 -41 -60 -20 -16 -41
-32 -47 -38 -6 -5 -29 -25 -51 -44 -183 -155 -390 -359 -507 -500 -86 -103
-186 -237 -223 -299 -6 -9 -19 -30 -29 -45 -43 -64 -189 -347 -179 -347 3 0 1
-6 -4 -12 -6 -7 -20 -42 -32 -78 -12 -36 -25 -72 -28 -80 -3 -8 -7 -19 -8 -25
-2 -5 -10 -39 -20 -75 -34 -130 -47 -228 -50 -380 -6 -283 40 -499 156 -745
33 -70 108 -206 118 -215 3 -3 23 -31 44 -62 21 -31 46 -66 55 -76 9 -11 32
-40 51 -64 58 -72 251 -260 341 -331 47 -37 90 -71 97 -77 6 -5 63 -43 125
-84 190 -124 374 -220 595 -307 70 -28 133 -52 138 -54 6 -1 17 -5 25 -8 120
-47 481 -138 644 -162 21 -3 48 -8 60 -10 12 -3 39 -7 61 -10 22 -2 60 -6 85
-10 304 -38 703 -38 1020 0 63 8 65 8 105 1 17 -3 62 -8 100 -11 39 -3 106 -9
150 -12 170 -15 789 -6 883 12 12 2 47 6 79 10 104 11 270 38 373 60 36 8 79
17 95 20 37 7 60 13 60 15 0 1 11 4 25 6 59 11 328 96 405 129 17 7 46 18 65
25 92 33 343 156 428 208 120 76 246 162 327 225 105 82 329 304 400 397 27
36 52 67 55 70 19 17 141 219 185 308 51 103 121 277 129 324 3 13 5 23 6 23
5 0 47 203 57 275 10 71 9 390 0 455 -9 58 -18 111 -24 140 -2 11 -6 31 -8 45
-18 99 -102 335 -168 470 -34 69 -65 127 -69 128 -4 2 -8 8 -8 13 0 15 -108
177 -187 280 -140 183 -314 360 -529 537 l-51 41 -23 118 c-13 65 -24 125 -25
133 -1 8 -7 40 -13 70 -6 30 -14 70 -17 87 -3 18 -14 78 -25 133 -11 55 -22
115 -25 133 -6 30 -38 200 -50 260 -3 15 -7 39 -10 55 -3 15 -8 38 -11 52 -3
14 -8 39 -10 55 -3 17 -7 41 -10 55 -3 14 -8 36 -10 50 -3 14 -12 61 -20 105
-8 44 -17 91 -20 105 -2 14 -7 36 -9 50 -3 14 -8 39 -11 55 -3 17 -7 40 -9 53
-18 84 -23 112 -31 167 -11 67 -19 72 -43 24 -23 -44 -55 -105 -126 -234 -21
-38 -55 -101 -75 -140 -77 -144 -114 -212 -158 -295 -24 -47 -53 -98 -62 -115
-10 -16 -37 -66 -60 -110 -80 -149 -103 -190 -114 -204 -6 -8 -10 -17 -9 -20
1 -3 -12 -29 -28 -57 l-29 -51 -67 19 c-95 28 -133 37 -173 44 -19 3 -38 8
-42 10 -4 3 -22 7 -40 9 -18 3 -44 7 -58 10 -75 16 -126 24 -170 29 -19 2 -35
4 -35 5 0 1 -20 3 -45 5 -25 2 -70 7 -100 10 -151 18 -593 24 -830 12 -186 -9
-314 -17 -355 -21 -22 -3 -78 -7 -125 -10 -47 -3 -98 -7 -115 -9 -16 -2 -68
-7 -115 -10 -47 -4 -98 -9 -113 -12 -15 -2 -51 -6 -80 -9 -29 -2 -77 -7 -107
-10 -30 -3 -75 -8 -100 -10 -25 -2 -61 -6 -80 -9 -19 -4 -64 -8 -100 -11 -78
-5 -161 -15 -177 -20 -11 -4 -253 404 -253 426 0 5 -4 9 -10 9 -5 0 -10 4 -10
9 0 8 -292 525 -328 581 -9 14 -15 28 -14 33 1 4 -3 7 -8 7 -5 0 -10 4 -10 9
0 9 -117 219 -131 235 -5 6 -10 3 -13 -5z"/>
</g>
</svg>
